<svg xmlns="http://www.w3.org/2000/svg" xmlns:xlink="http://www.w3.org/1999/xlink" width="116" zoomAndPan="magnify" viewBox="0 0 87 30.000001" height="40" preserveAspectRatio="xMidYMid meet" version="1.0"><defs><g/><clipPath id="1ac30cdb85"><path d="M 48 5 L 75 5 L 75 25 L 48 25 Z M 48 5 " clip-rule="nonzero"/></clipPath><clipPath id="99b2297475"><path d="M 47.519531 8.644531 L 72.382812 2.617188 L 76.6875 20.378906 L 51.824219 26.40625 Z M 47.519531 8.644531 " clip-rule="nonzero"/></clipPath><clipPath id="40b19f823d"><path d="M 47.519531 8.644531 L 72.382812 2.617188 L 76.6875 20.378906 L 51.824219 26.40625 Z M 47.519531 8.644531 " clip-rule="nonzero"/></clipPath><clipPath id="ec66986fb5"><path d="M 20 5 L 23 5 L 23 10 L 20 10 Z M 20 5 " clip-rule="nonzero"/></clipPath><clipPath id="ad67858fc9"><path d="M 17.738281 2.667969 L 23.746094 6.832031 L 16.808594 16.847656 L 10.796875 12.683594 Z M 17.738281 2.667969 " clip-rule="nonzero"/></clipPath><clipPath id="bf73cb6ada"><path d="M 17.738281 2.667969 L 23.746094 6.832031 L 16.808594 16.847656 L 10.796875 12.683594 Z M 17.738281 2.667969 " clip-rule="nonzero"/></clipPath><clipPath id="fe49957e54"><path d="M 18 7 L 20 7 L 20 11 L 18 11 Z M 18 7 " clip-rule="nonzero"/></clipPath><clipPath id="f4da6599fa"><path d="M 17.738281 2.667969 L 23.746094 6.832031 L 16.808594 16.847656 L 10.796875 12.683594 Z M 17.738281 2.667969 " clip-rule="nonzero"/></clipPath><clipPath id="715f176363"><path d="M 17.738281 2.667969 L 23.746094 6.832031 L 16.808594 16.847656 L 10.796875 12.683594 Z M 17.738281 2.667969 " clip-rule="nonzero"/></clipPath><clipPath id="ae74690e95"><path d="M 18 5 L 20 5 L 20 7 L 18 7 Z M 18 5 " clip-rule="nonzero"/></clipPath><clipPath id="f12d355663"><path d="M 17.738281 2.667969 L 23.746094 6.832031 L 16.808594 16.847656 L 10.796875 12.683594 Z M 17.738281 2.667969 " clip-rule="nonzero"/></clipPath><clipPath id="3951db834c"><path d="M 17.738281 2.667969 L 23.746094 6.832031 L 16.808594 16.847656 L 10.796875 12.683594 Z M 17.738281 2.667969 " clip-rule="nonzero"/></clipPath><clipPath id="c0390f9e93"><path d="M 15 5 L 19 5 L 19 10 L 15 10 Z M 15 5 " clip-rule="nonzero"/></clipPath><clipPath id="b7c31d111b"><path d="M 17.738281 2.667969 L 23.746094 6.832031 L 16.808594 16.847656 L 10.796875 12.683594 Z M 17.738281 2.667969 " clip-rule="nonzero"/></clipPath><clipPath id="3be60a36b8"><path d="M 17.738281 2.667969 L 23.746094 6.832031 L 16.808594 16.847656 L 10.796875 12.683594 Z M 17.738281 2.667969 " clip-rule="nonzero"/></clipPath><clipPath id="4ff632cb0f"><path d="M 14 9 L 17 9 L 17 12 L 14 12 Z M 14 9 " clip-rule="nonzero"/></clipPath><clipPath id="4ede49d5b0"><path d="M 17.738281 2.667969 L 23.746094 6.832031 L 16.808594 16.847656 L 10.796875 12.683594 Z M 17.738281 2.667969 " clip-rule="nonzero"/></clipPath><clipPath id="d9070936bf"><path d="M 17.738281 2.667969 L 23.746094 6.832031 L 16.808594 16.847656 L 10.796875 12.683594 Z M 17.738281 2.667969 " clip-rule="nonzero"/></clipPath><clipPath id="587d77de63"><path d="M 11 12 L 17 12 L 17 14 L 11 14 Z M 11 12 " clip-rule="nonzero"/></clipPath><clipPath id="f8be9210a3"><path d="M 17.738281 2.667969 L 23.746094 6.832031 L 16.808594 16.847656 L 10.796875 12.683594 Z M 17.738281 2.667969 " clip-rule="nonzero"/></clipPath><clipPath id="c162d77e65"><path d="M 17.738281 2.667969 L 23.746094 6.832031 L 16.808594 16.847656 L 10.796875 12.683594 Z M 17.738281 2.667969 " clip-rule="nonzero"/></clipPath><clipPath id="9da696d9e7"><path d="M 14 14 L 17 14 L 17 16 L 14 16 Z M 14 14 " clip-rule="nonzero"/></clipPath><clipPath id="98c8913e49"><path d="M 17.738281 2.667969 L 23.746094 6.832031 L 16.808594 16.847656 L 10.796875 12.683594 Z M 17.738281 2.667969 " clip-rule="nonzero"/></clipPath><clipPath id="463c9d5e4a"><path d="M 17.738281 2.667969 L 23.746094 6.832031 L 16.808594 16.847656 L 10.796875 12.683594 Z M 17.738281 2.667969 " clip-rule="nonzero"/></clipPath></defs><g clip-path="url(#1ac30cdb85)"><g clip-path="url(#99b2297475)"><g clip-path="url(#40b19f823d)"><path fill="#0ea5ea" d="M 73.683594 11.03125 C 73.773438 11.382812 73.96875 11.589844 74.128906 11.707031 C 73.886719 12.03125 73.648438 12.355469 73.402344 12.675781 C 73.140625 12.480469 72.710938 12.058594 72.523438 11.347656 C 72.078125 11.941406 71.628906 12.535156 71.171875 13.121094 C 70.652344 13.792969 70.125 14.457031 69.585938 15.117188 C 69.050781 15.777344 68.507812 16.429688 67.953125 17.078125 C 67.398438 17.722656 66.832031 18.359375 66.253906 18.988281 C 65.675781 19.617188 65.085938 20.230469 64.46875 20.832031 C 63.855469 21.433594 63.222656 22.015625 62.550781 22.566406 C 61.878906 23.117188 61.171875 23.640625 60.371094 24.070312 C 59.96875 24.285156 59.539062 24.476562 59.050781 24.59375 C 58.808594 24.648438 58.550781 24.6875 58.277344 24.683594 C 58.140625 24.683594 58 24.667969 57.859375 24.640625 C 57.71875 24.613281 57.578125 24.574219 57.4375 24.515625 C 57.300781 24.460938 57.171875 24.386719 57.050781 24.304688 C 56.9375 24.21875 56.828125 24.140625 56.730469 24.039062 C 56.625 23.945312 56.539062 23.832031 56.453125 23.722656 C 56.414062 23.664062 56.375 23.605469 56.335938 23.546875 C 56.316406 23.515625 56.300781 23.484375 56.285156 23.453125 L 56.238281 23.359375 C 56.117188 23.113281 56.039062 22.851562 55.996094 22.597656 L 55.980469 22.503906 L 55.96875 22.410156 C 55.964844 22.347656 55.957031 22.28125 55.953125 22.222656 C 55.949219 22.097656 55.9375 21.972656 55.945312 21.855469 C 55.957031 21.371094 56.03125 20.914062 56.132812 20.476562 C 56.234375 20.035156 56.367188 19.613281 56.507812 19.199219 C 56.796875 18.371094 57.136719 17.582031 57.488281 16.800781 C 57.839844 16.023438 58.207031 15.257812 58.574219 14.496094 C 58.9375 13.734375 59.300781 12.976562 59.636719 12.214844 C 59.96875 11.457031 60.285156 10.6875 60.511719 9.921875 C 60.625 9.539062 60.714844 9.15625 60.753906 8.789062 L 60.765625 8.652344 L 60.773438 8.585938 L 60.773438 8.519531 C 60.773438 8.476562 60.777344 8.429688 60.777344 8.386719 L 60.769531 8.261719 C 60.757812 8.09375 60.730469 7.941406 60.683594 7.8125 C 60.632812 7.683594 60.570312 7.578125 60.480469 7.488281 C 60.460938 7.464844 60.441406 7.441406 60.414062 7.425781 L 60.375 7.394531 C 60.363281 7.382812 60.351562 7.371094 60.332031 7.363281 C 60.300781 7.34375 60.269531 7.324219 60.238281 7.304688 L 60.140625 7.253906 C 60.003906 7.191406 59.859375 7.148438 59.703125 7.125 C 59.546875 7.097656 59.378906 7.101562 59.203125 7.113281 C 58.859375 7.136719 58.496094 7.234375 58.136719 7.367188 C 57.773438 7.5 57.417969 7.671875 57.066406 7.859375 C 56.363281 8.246094 55.6875 8.710938 55.03125 9.210938 C 54.375 9.710938 53.742188 10.246094 53.128906 10.804688 C 52.511719 11.363281 51.910156 11.945312 51.328125 12.539062 C 51.035156 12.835938 50.746094 13.140625 50.460938 13.445312 C 50.320312 13.597656 50.175781 13.75 50.039062 13.902344 C 49.898438 14.058594 49.757812 14.214844 49.625 14.367188 L 48.714844 13.582031 C 48.863281 13.414062 49.003906 13.257812 49.148438 13.097656 C 49.292969 12.9375 49.4375 12.78125 49.582031 12.625 C 49.875 12.3125 50.171875 12.003906 50.46875 11.699219 C 51.070312 11.085938 51.683594 10.492188 52.320312 9.917969 C 52.957031 9.339844 53.613281 8.78125 54.300781 8.257812 C 54.992188 7.730469 55.710938 7.234375 56.492188 6.808594 C 56.882812 6.59375 57.289062 6.398438 57.71875 6.238281 C 58.152344 6.082031 58.613281 5.953125 59.109375 5.914062 C 59.359375 5.898438 59.617188 5.894531 59.878906 5.9375 C 60.136719 5.976562 60.402344 6.050781 60.648438 6.167969 C 60.710938 6.199219 60.773438 6.226562 60.832031 6.261719 L 61.007812 6.371094 C 61.035156 6.386719 61.0625 6.410156 61.09375 6.433594 L 61.179688 6.5 C 61.238281 6.542969 61.289062 6.597656 61.34375 6.652344 C 61.550781 6.863281 61.710938 7.125 61.808594 7.394531 C 61.90625 7.660156 61.949219 7.925781 61.96875 8.183594 L 61.976562 8.371094 C 61.976562 8.433594 61.976562 8.496094 61.972656 8.558594 L 61.972656 8.648438 L 61.949219 8.917969 C 61.894531 9.390625 61.789062 9.832031 61.664062 10.261719 C 61.410156 11.117188 61.078125 11.914062 60.734375 12.703125 C 60.386719 13.484375 60.019531 14.253906 59.65625 15.015625 C 59.289062 15.777344 58.925781 16.535156 58.582031 17.296875 C 58.238281 18.058594 57.910156 18.824219 57.644531 19.59375 C 57.511719 19.976562 57.390625 20.363281 57.300781 20.746094 C 57.210938 21.132812 57.152344 21.515625 57.144531 21.875 C 57.140625 21.96875 57.148438 22.054688 57.148438 22.140625 C 57.152344 22.183594 57.160156 22.226562 57.164062 22.269531 L 57.167969 22.332031 L 57.179688 22.394531 C 57.207031 22.558594 57.253906 22.703125 57.316406 22.835938 L 57.34375 22.882812 C 57.347656 22.902344 57.359375 22.917969 57.367188 22.929688 C 57.386719 22.960938 57.40625 22.988281 57.425781 23.019531 C 57.472656 23.074219 57.511719 23.132812 57.566406 23.179688 C 57.613281 23.230469 57.675781 23.269531 57.730469 23.316406 C 57.785156 23.351562 57.839844 23.382812 57.898438 23.40625 C 57.957031 23.429688 58.019531 23.449219 58.085938 23.460938 C 58.152344 23.472656 58.222656 23.484375 58.296875 23.484375 C 58.445312 23.484375 58.609375 23.464844 58.777344 23.425781 C 59.113281 23.34375 59.464844 23.195312 59.808594 23.011719 C 60.496094 22.644531 61.15625 22.15625 61.789062 21.636719 C 62.425781 21.117188 63.035156 20.554688 63.632812 19.972656 C 64.226562 19.390625 64.804688 18.789062 65.371094 18.175781 C 65.941406 17.558594 66.496094 16.929688 67.042969 16.296875 C 67.589844 15.660156 68.125 15.011719 68.65625 14.359375 C 69.183594 13.710938 69.707031 13.050781 70.222656 12.386719 C 70.675781 11.804688 71.121094 11.21875 71.5625 10.628906 C 70.828125 10.644531 70.308594 10.34375 70.042969 10.144531 C 70.277344 9.835938 70.511719 9.523438 70.742188 9.210938 C 70.902344 9.328125 71.15625 9.453125 71.515625 9.441406 C 71.871094 9.429688 72.335938 9.277344 72.898438 8.839844 L 73.839844 9.503906 C 73.597656 10.195312 73.589844 10.679688 73.683594 11.03125 Z M 73.683594 11.03125 " fill-opacity="1" fill-rule="nonzero"/></g></g></g><g clip-path="url(#ec66986fb5)"><g clip-path="url(#ad67858fc9)"><g clip-path="url(#bf73cb6ada)"><path fill="#0ea5ea" d="M 21.046875 9.628906 C 20.738281 9.550781 20.710938 8.171875 21.007812 7.007812 C 21.304688 5.84375 21.691406 5.8125 21.996094 5.894531 C 22.300781 5.972656 22.625 6.179688 22.332031 7.339844 C 22.039062 8.5 21.347656 9.710938 21.046875 9.628906 Z M 21.046875 9.628906 " fill-opacity="1" fill-rule="nonzero"/></g></g></g><g clip-path="url(#fe49957e54)"><g clip-path="url(#f4da6599fa)"><g clip-path="url(#715f176363)"><path fill="#0ea5ea" d="M 19.453125 10.351562 C 19.234375 10.355469 18.960938 9.484375 18.898438 8.714844 C 18.839844 7.949219 19.035156 7.894531 19.25 7.808594 C 19.382812 7.753906 19.5 7.777344 19.597656 7.882812 C 19.765625 8.105469 19.847656 8.355469 19.84375 8.632812 C 19.914062 9.457031 19.679688 10.339844 19.453125 10.351562 Z M 19.453125 10.351562 " fill-opacity="1" fill-rule="nonzero"/></g></g></g><g clip-path="url(#ae74690e95)"><g clip-path="url(#f12d355663)"><g clip-path="url(#3951db834c)"><path fill="#0ea5ea" d="M 19.261719 6.769531 C 19.105469 6.792969 18.863281 6.363281 18.8125 5.949219 C 18.757812 5.535156 18.929688 5.472656 19.085938 5.449219 C 19.246094 5.429688 19.429688 5.449219 19.484375 5.855469 C 19.542969 6.265625 19.417969 6.75 19.261719 6.769531 Z M 19.261719 6.769531 " fill-opacity="1" fill-rule="nonzero"/></g></g></g><g clip-path="url(#c0390f9e93)"><g clip-path="url(#b7c31d111b)"><g clip-path="url(#3be60a36b8)"><path fill="#0ea5ea" d="M 17.972656 9.972656 C 17.6875 10.109375 16.640625 8.796875 15.988281 7.464844 C 15.339844 6.132812 15.59375 5.828125 15.886719 5.695312 C 16.175781 5.566406 16.566406 5.539062 17.210938 6.871094 C 17.859375 8.203125 18.257812 9.832031 17.972656 9.972656 Z M 17.972656 9.972656 " fill-opacity="1" fill-rule="nonzero"/></g></g></g><g clip-path="url(#4ff632cb0f)"><g clip-path="url(#4ede49d5b0)"><g clip-path="url(#d9070936bf)"><path fill="#0ea5ea" d="M 16.800781 11.347656 C 16.699219 11.46875 15.914062 11.046875 15.320312 10.546875 C 14.722656 10.042969 14.769531 9.847656 14.871094 9.726562 C 14.96875 9.601562 15.152344 9.515625 15.753906 10.023438 C 16.355469 10.527344 16.902344 11.226562 16.800781 11.347656 Z M 16.800781 11.347656 " fill-opacity="1" fill-rule="nonzero"/></g></g></g><g clip-path="url(#587d77de63)"><g clip-path="url(#f8be9210a3)"><g clip-path="url(#c162d77e65)"><path fill="#0ea5ea" d="M 16.15625 13.0625 C 16.148438 13.378906 14.640625 13.707031 13.292969 13.671875 C 11.941406 13.636719 11.816406 13.273438 11.816406 12.953125 C 11.816406 12.632812 11.976562 12.277344 13.328125 12.304688 C 14.683594 12.332031 16.167969 12.742188 16.15625 13.0625 Z M 16.15625 13.0625 " fill-opacity="1" fill-rule="nonzero"/></g></g></g><g clip-path="url(#9da696d9e7)"><g clip-path="url(#98c8913e49)"><g clip-path="url(#463c9d5e4a)"><path fill="#0ea5ea" d="M 16.617188 14.445312 C 16.703125 14.613281 16.054688 15.179688 15.386719 15.507812 C 14.714844 15.839844 14.539062 15.6875 14.460938 15.507812 C 14.382812 15.328125 14.351562 15.109375 15.023438 14.777344 C 15.691406 14.445312 16.535156 14.269531 16.617188 14.445312 Z M 16.617188 14.445312 " fill-opacity="1" fill-rule="nonzero"/></g></g></g><g fill="#ffffff" fill-opacity="0.4"><g transform="translate(17.401519, 17.117458)"><g><path d="M 0.46875 -0.9375 C 0.3125 -1.132812 0.234375 -1.3125 0.234375 -1.46875 C 0.234375 -1.625 0.363281 -1.828125 0.625 -2.078125 C 0.769531 -2.222656 0.925781 -2.296875 1.09375 -2.296875 C 1.269531 -2.296875 1.507812 -2.144531 1.8125 -1.84375 C 1.894531 -1.738281 2.015625 -1.640625 2.171875 -1.546875 C 2.335938 -1.453125 2.488281 -1.40625 2.625 -1.40625 C 3.1875 -1.40625 3.46875 -1.632812 3.46875 -2.09375 C 3.46875 -2.238281 3.390625 -2.359375 3.234375 -2.453125 C 3.078125 -2.546875 2.882812 -2.613281 2.65625 -2.65625 C 2.425781 -2.695312 2.175781 -2.765625 1.90625 -2.859375 C 1.632812 -2.953125 1.382812 -3.0625 1.15625 -3.1875 C 0.925781 -3.320312 0.734375 -3.523438 0.578125 -3.796875 C 0.421875 -4.078125 0.34375 -4.410156 0.34375 -4.796875 C 0.34375 -5.335938 0.539062 -5.804688 0.9375 -6.203125 C 1.34375 -6.597656 1.890625 -6.796875 2.578125 -6.796875 C 2.941406 -6.796875 3.273438 -6.75 3.578125 -6.65625 C 3.878906 -6.5625 4.085938 -6.46875 4.203125 -6.375 L 4.421875 -6.203125 C 4.609375 -6.023438 4.703125 -5.875 4.703125 -5.75 C 4.703125 -5.625 4.628906 -5.457031 4.484375 -5.25 C 4.273438 -4.945312 4.0625 -4.796875 3.84375 -4.796875 C 3.71875 -4.796875 3.5625 -4.851562 3.375 -4.96875 C 3.351562 -4.976562 3.316406 -5.007812 3.265625 -5.0625 C 3.210938 -5.113281 3.164062 -5.15625 3.125 -5.1875 C 3 -5.257812 2.835938 -5.296875 2.640625 -5.296875 C 2.441406 -5.296875 2.273438 -5.25 2.140625 -5.15625 C 2.015625 -5.0625 1.953125 -4.929688 1.953125 -4.765625 C 1.953125 -4.597656 2.03125 -4.460938 2.1875 -4.359375 C 2.34375 -4.253906 2.535156 -4.179688 2.765625 -4.140625 C 2.992188 -4.109375 3.242188 -4.054688 3.515625 -3.984375 C 3.796875 -3.910156 4.050781 -3.816406 4.28125 -3.703125 C 4.507812 -3.597656 4.703125 -3.410156 4.859375 -3.140625 C 5.015625 -2.867188 5.09375 -2.535156 5.09375 -2.140625 C 5.09375 -1.742188 5.015625 -1.394531 4.859375 -1.09375 C 4.703125 -0.789062 4.492188 -0.554688 4.234375 -0.390625 C 3.742188 -0.0664062 3.21875 0.09375 2.65625 0.09375 C 2.363281 0.09375 2.085938 0.0546875 1.828125 -0.015625 C 1.578125 -0.0859375 1.375 -0.175781 1.21875 -0.28125 C 0.894531 -0.46875 0.671875 -0.65625 0.546875 -0.84375 Z M 0.46875 -0.9375 "/></g></g></g><g fill="#ffffff" fill-opacity="0.4"><g transform="translate(22.721936, 17.117458)"><g><path d="M 4.5 -6.4375 C 4.550781 -6.53125 4.632812 -6.59375 4.75 -6.625 C 4.863281 -6.664062 5.007812 -6.6875 5.1875 -6.6875 C 5.363281 -6.6875 5.503906 -6.671875 5.609375 -6.640625 C 5.710938 -6.609375 5.789062 -6.570312 5.84375 -6.53125 C 5.894531 -6.488281 5.9375 -6.425781 5.96875 -6.34375 C 6 -6.25 6.015625 -6.09375 6.015625 -5.875 L 6.015625 -0.8125 C 6.015625 -0.675781 6.007812 -0.570312 6 -0.5 C 5.988281 -0.425781 5.957031 -0.34375 5.90625 -0.25 C 5.820312 -0.09375 5.585938 -0.015625 5.203125 -0.015625 C 4.773438 -0.015625 4.523438 -0.125 4.453125 -0.34375 C 4.410156 -0.445312 4.390625 -0.609375 4.390625 -0.828125 L 4.390625 -2.671875 L 1.984375 -2.671875 L 1.984375 -0.8125 C 1.984375 -0.675781 1.976562 -0.570312 1.96875 -0.5 C 1.957031 -0.425781 1.925781 -0.34375 1.875 -0.25 C 1.789062 -0.09375 1.554688 -0.015625 1.171875 -0.015625 C 0.742188 -0.015625 0.492188 -0.125 0.421875 -0.34375 C 0.378906 -0.445312 0.359375 -0.609375 0.359375 -0.828125 L 0.359375 -5.890625 C 0.359375 -6.023438 0.363281 -6.128906 0.375 -6.203125 C 0.382812 -6.273438 0.414062 -6.351562 0.46875 -6.4375 C 0.550781 -6.601562 0.785156 -6.6875 1.171875 -6.6875 C 1.597656 -6.6875 1.851562 -6.570312 1.9375 -6.34375 C 1.96875 -6.25 1.984375 -6.09375 1.984375 -5.875 L 1.984375 -4.015625 L 4.390625 -4.015625 L 4.390625 -5.890625 C 4.390625 -6.023438 4.394531 -6.128906 4.40625 -6.203125 C 4.414062 -6.273438 4.445312 -6.351562 4.5 -6.4375 Z M 4.5 -6.4375 "/></g></g></g><g fill="#ffffff" fill-opacity="0.4"><g transform="translate(29.100964, 17.117458)"><g><path d="M 0.359375 -5.890625 C 0.359375 -6.023438 0.363281 -6.128906 0.375 -6.203125 C 0.382812 -6.273438 0.414062 -6.351562 0.46875 -6.4375 C 0.550781 -6.601562 0.785156 -6.6875 1.171875 -6.6875 C 1.597656 -6.6875 1.851562 -6.570312 1.9375 -6.34375 C 1.96875 -6.25 1.984375 -6.09375 1.984375 -5.875 L 1.984375 -0.796875 C 1.984375 -0.648438 1.976562 -0.546875 1.96875 -0.484375 C 1.957031 -0.421875 1.925781 -0.34375 1.875 -0.25 C 1.789062 -0.0820312 1.554688 0 1.171875 0 C 0.742188 0 0.492188 -0.113281 0.421875 -0.34375 C 0.378906 -0.445312 0.359375 -0.601562 0.359375 -0.8125 Z M 0.359375 -5.890625 "/></g></g></g><g fill="#ffffff" fill-opacity="0.4"><g transform="translate(31.446324, 17.117458)"><g><path d="M 0.46875 -0.9375 C 0.3125 -1.132812 0.234375 -1.3125 0.234375 -1.46875 C 0.234375 -1.625 0.363281 -1.828125 0.625 -2.078125 C 0.769531 -2.222656 0.925781 -2.296875 1.09375 -2.296875 C 1.269531 -2.296875 1.507812 -2.144531 1.8125 -1.84375 C 1.894531 -1.738281 2.015625 -1.640625 2.171875 -1.546875 C 2.335938 -1.453125 2.488281 -1.40625 2.625 -1.40625 C 3.1875 -1.40625 3.46875 -1.632812 3.46875 -2.09375 C 3.46875 -2.238281 3.390625 -2.359375 3.234375 -2.453125 C 3.078125 -2.546875 2.882812 -2.613281 2.65625 -2.65625 C 2.425781 -2.695312 2.175781 -2.765625 1.90625 -2.859375 C 1.632812 -2.953125 1.382812 -3.0625 1.15625 -3.1875 C 0.925781 -3.320312 0.734375 -3.523438 0.578125 -3.796875 C 0.421875 -4.078125 0.34375 -4.410156 0.34375 -4.796875 C 0.34375 -5.335938 0.539062 -5.804688 0.9375 -6.203125 C 1.34375 -6.597656 1.890625 -6.796875 2.578125 -6.796875 C 2.941406 -6.796875 3.273438 -6.75 3.578125 -6.65625 C 3.878906 -6.5625 4.085938 -6.46875 4.203125 -6.375 L 4.421875 -6.203125 C 4.609375 -6.023438 4.703125 -5.875 4.703125 -5.75 C 4.703125 -5.625 4.628906 -5.457031 4.484375 -5.25 C 4.273438 -4.945312 4.0625 -4.796875 3.84375 -4.796875 C 3.71875 -4.796875 3.5625 -4.851562 3.375 -4.96875 C 3.351562 -4.976562 3.316406 -5.007812 3.265625 -5.0625 C 3.210938 -5.113281 3.164062 -5.15625 3.125 -5.1875 C 3 -5.257812 2.835938 -5.296875 2.640625 -5.296875 C 2.441406 -5.296875 2.273438 -5.25 2.140625 -5.15625 C 2.015625 -5.0625 1.953125 -4.929688 1.953125 -4.765625 C 1.953125 -4.597656 2.03125 -4.460938 2.1875 -4.359375 C 2.34375 -4.253906 2.535156 -4.179688 2.765625 -4.140625 C 2.992188 -4.109375 3.242188 -4.054688 3.515625 -3.984375 C 3.796875 -3.910156 4.050781 -3.816406 4.28125 -3.703125 C 4.507812 -3.597656 4.703125 -3.410156 4.859375 -3.140625 C 5.015625 -2.867188 5.09375 -2.535156 5.09375 -2.140625 C 5.09375 -1.742188 5.015625 -1.394531 4.859375 -1.09375 C 4.703125 -0.789062 4.492188 -0.554688 4.234375 -0.390625 C 3.742188 -0.0664062 3.21875 0.09375 2.65625 0.09375 C 2.363281 0.09375 2.085938 0.0546875 1.828125 -0.015625 C 1.578125 -0.0859375 1.375 -0.175781 1.21875 -0.28125 C 0.894531 -0.46875 0.671875 -0.65625 0.546875 -0.84375 Z M 0.46875 -0.9375 "/></g></g></g><g fill="#ffffff" fill-opacity="0.4"><g transform="translate(36.766741, 17.117458)"><g><path d="M 4.5 -6.4375 C 4.550781 -6.53125 4.632812 -6.59375 4.75 -6.625 C 4.863281 -6.664062 5.007812 -6.6875 5.1875 -6.6875 C 5.363281 -6.6875 5.503906 -6.671875 5.609375 -6.640625 C 5.710938 -6.609375 5.789062 -6.570312 5.84375 -6.53125 C 5.894531 -6.488281 5.9375 -6.425781 5.96875 -6.34375 C 6 -6.25 6.015625 -6.09375 6.015625 -5.875 L 6.015625 -0.8125 C 6.015625 -0.675781 6.007812 -0.570312 6 -0.5 C 5.988281 -0.425781 5.957031 -0.34375 5.90625 -0.25 C 5.820312 -0.09375 5.585938 -0.015625 5.203125 -0.015625 C 4.773438 -0.015625 4.523438 -0.125 4.453125 -0.34375 C 4.410156 -0.445312 4.390625 -0.609375 4.390625 -0.828125 L 4.390625 -2.671875 L 1.984375 -2.671875 L 1.984375 -0.8125 C 1.984375 -0.675781 1.976562 -0.570312 1.96875 -0.5 C 1.957031 -0.425781 1.925781 -0.34375 1.875 -0.25 C 1.789062 -0.09375 1.554688 -0.015625 1.171875 -0.015625 C 0.742188 -0.015625 0.492188 -0.125 0.421875 -0.34375 C 0.378906 -0.445312 0.359375 -0.609375 0.359375 -0.828125 L 0.359375 -5.890625 C 0.359375 -6.023438 0.363281 -6.128906 0.375 -6.203125 C 0.382812 -6.273438 0.414062 -6.351562 0.46875 -6.4375 C 0.550781 -6.601562 0.785156 -6.6875 1.171875 -6.6875 C 1.597656 -6.6875 1.851562 -6.570312 1.9375 -6.34375 C 1.96875 -6.25 1.984375 -6.09375 1.984375 -5.875 L 1.984375 -4.015625 L 4.390625 -4.015625 L 4.390625 -5.890625 C 4.390625 -6.023438 4.394531 -6.128906 4.40625 -6.203125 C 4.414062 -6.273438 4.445312 -6.351562 4.5 -6.4375 Z M 4.5 -6.4375 "/></g></g></g><g fill="#ffffff" fill-opacity="0.4"><g transform="translate(43.145769, 17.117458)"><g><path d="M 0.359375 -5.890625 C 0.359375 -6.023438 0.363281 -6.128906 0.375 -6.203125 C 0.382812 -6.273438 0.414062 -6.351562 0.46875 -6.4375 C 0.550781 -6.601562 0.785156 -6.6875 1.171875 -6.6875 C 1.597656 -6.6875 1.851562 -6.570312 1.9375 -6.34375 C 1.96875 -6.25 1.984375 -6.09375 1.984375 -5.875 L 1.984375 -0.796875 C 1.984375 -0.648438 1.976562 -0.546875 1.96875 -0.484375 C 1.957031 -0.421875 1.925781 -0.34375 1.875 -0.25 C 1.789062 -0.0820312 1.554688 0 1.171875 0 C 0.742188 0 0.492188 -0.113281 0.421875 -0.34375 C 0.378906 -0.445312 0.359375 -0.601562 0.359375 -0.8125 Z M 0.359375 -5.890625 "/></g></g></g><g fill="#ffffff" fill-opacity="0.4"><g transform="translate(45.491128, 17.117458)"><g><path d="M 5.484375 -1.125 C 5.578125 -0.90625 5.625 -0.75 5.625 -0.65625 C 5.625 -0.425781 5.4375 -0.234375 5.0625 -0.078125 C 4.863281 0.015625 4.703125 0.0625 4.578125 0.0625 C 4.460938 0.0625 4.363281 0.03125 4.28125 -0.03125 C 4.207031 -0.09375 4.15625 -0.148438 4.125 -0.203125 C 4.0625 -0.328125 3.820312 -0.878906 3.40625 -1.859375 L 3.125 -1.84375 L 1.984375 -1.84375 L 1.984375 -0.8125 C 1.984375 -0.675781 1.976562 -0.570312 1.96875 -0.5 C 1.957031 -0.425781 1.925781 -0.34375 1.875 -0.25 C 1.789062 -0.09375 1.554688 -0.015625 1.171875 -0.015625 C 0.742188 -0.015625 0.492188 -0.125 0.421875 -0.34375 C 0.378906 -0.445312 0.359375 -0.609375 0.359375 -0.828125 L 0.359375 -5.890625 C 0.359375 -6.023438 0.363281 -6.128906 0.375 -6.203125 C 0.382812 -6.273438 0.414062 -6.351562 0.46875 -6.4375 C 0.550781 -6.601562 0.785156 -6.6875 1.171875 -6.6875 L 3.140625 -6.6875 C 3.679688 -6.6875 4.203125 -6.492188 4.703125 -6.109375 C 4.953125 -5.921875 5.15625 -5.664062 5.3125 -5.34375 C 5.46875 -5.019531 5.546875 -4.660156 5.546875 -4.265625 C 5.546875 -3.578125 5.316406 -3.007812 4.859375 -2.5625 C 4.992188 -2.238281 5.203125 -1.757812 5.484375 -1.125 Z M 1.984375 -3.453125 L 3.140625 -3.453125 C 3.316406 -3.453125 3.492188 -3.519531 3.671875 -3.65625 C 3.847656 -3.789062 3.9375 -3.988281 3.9375 -4.25 C 3.9375 -4.519531 3.847656 -4.722656 3.671875 -4.859375 C 3.492188 -5.003906 3.3125 -5.078125 3.125 -5.078125 L 1.984375 -5.078125 Z M 1.984375 -3.453125 "/></g></g></g><g fill="#000000" fill-opacity="1"><g transform="translate(16.998209, 16.714148)"><g><path d="M 0.46875 -0.9375 C 0.3125 -1.132812 0.234375 -1.3125 0.234375 -1.46875 C 0.234375 -1.625 0.363281 -1.828125 0.625 -2.078125 C 0.769531 -2.222656 0.925781 -2.296875 1.09375 -2.296875 C 1.269531 -2.296875 1.507812 -2.144531 1.8125 -1.84375 C 1.894531 -1.738281 2.015625 -1.640625 2.171875 -1.546875 C 2.335938 -1.453125 2.488281 -1.40625 2.625 -1.40625 C 3.1875 -1.40625 3.46875 -1.632812 3.46875 -2.09375 C 3.46875 -2.238281 3.390625 -2.359375 3.234375 -2.453125 C 3.078125 -2.546875 2.882812 -2.613281 2.65625 -2.65625 C 2.425781 -2.695312 2.175781 -2.765625 1.90625 -2.859375 C 1.632812 -2.953125 1.382812 -3.0625 1.15625 -3.1875 C 0.925781 -3.320312 0.734375 -3.523438 0.578125 -3.796875 C 0.421875 -4.078125 0.34375 -4.410156 0.34375 -4.796875 C 0.34375 -5.335938 0.539062 -5.804688 0.9375 -6.203125 C 1.34375 -6.597656 1.890625 -6.796875 2.578125 -6.796875 C 2.941406 -6.796875 3.273438 -6.75 3.578125 -6.65625 C 3.878906 -6.5625 4.085938 -6.46875 4.203125 -6.375 L 4.421875 -6.203125 C 4.609375 -6.023438 4.703125 -5.875 4.703125 -5.75 C 4.703125 -5.625 4.628906 -5.457031 4.484375 -5.25 C 4.273438 -4.945312 4.0625 -4.796875 3.84375 -4.796875 C 3.71875 -4.796875 3.5625 -4.851562 3.375 -4.96875 C 3.351562 -4.976562 3.316406 -5.007812 3.265625 -5.0625 C 3.210938 -5.113281 3.164062 -5.15625 3.125 -5.1875 C 3 -5.257812 2.835938 -5.296875 2.640625 -5.296875 C 2.441406 -5.296875 2.273438 -5.25 2.140625 -5.15625 C 2.015625 -5.0625 1.953125 -4.929688 1.953125 -4.765625 C 1.953125 -4.597656 2.03125 -4.460938 2.1875 -4.359375 C 2.34375 -4.253906 2.535156 -4.179688 2.765625 -4.140625 C 2.992188 -4.109375 3.242188 -4.054688 3.515625 -3.984375 C 3.796875 -3.910156 4.050781 -3.816406 4.28125 -3.703125 C 4.507812 -3.597656 4.703125 -3.410156 4.859375 -3.140625 C 5.015625 -2.867188 5.09375 -2.535156 5.09375 -2.140625 C 5.09375 -1.742188 5.015625 -1.394531 4.859375 -1.09375 C 4.703125 -0.789062 4.492188 -0.554688 4.234375 -0.390625 C 3.742188 -0.0664062 3.21875 0.09375 2.65625 0.09375 C 2.363281 0.09375 2.085938 0.0546875 1.828125 -0.015625 C 1.578125 -0.0859375 1.375 -0.175781 1.21875 -0.28125 C 0.894531 -0.46875 0.671875 -0.65625 0.546875 -0.84375 Z M 0.46875 -0.9375 "/></g></g></g><g fill="#000000" fill-opacity="1"><g transform="translate(22.318626, 16.714148)"><g><path d="M 4.5 -6.4375 C 4.550781 -6.53125 4.632812 -6.59375 4.75 -6.625 C 4.863281 -6.664062 5.007812 -6.6875 5.1875 -6.6875 C 5.363281 -6.6875 5.503906 -6.671875 5.609375 -6.640625 C 5.710938 -6.609375 5.789062 -6.570312 5.84375 -6.53125 C 5.894531 -6.488281 5.9375 -6.425781 5.96875 -6.34375 C 6 -6.25 6.015625 -6.09375 6.015625 -5.875 L 6.015625 -0.8125 C 6.015625 -0.675781 6.007812 -0.570312 6 -0.5 C 5.988281 -0.425781 5.957031 -0.34375 5.90625 -0.25 C 5.820312 -0.09375 5.585938 -0.015625 5.203125 -0.015625 C 4.773438 -0.015625 4.523438 -0.125 4.453125 -0.34375 C 4.410156 -0.445312 4.390625 -0.609375 4.390625 -0.828125 L 4.390625 -2.671875 L 1.984375 -2.671875 L 1.984375 -0.8125 C 1.984375 -0.675781 1.976562 -0.570312 1.96875 -0.5 C 1.957031 -0.425781 1.925781 -0.34375 1.875 -0.25 C 1.789062 -0.09375 1.554688 -0.015625 1.171875 -0.015625 C 0.742188 -0.015625 0.492188 -0.125 0.421875 -0.34375 C 0.378906 -0.445312 0.359375 -0.609375 0.359375 -0.828125 L 0.359375 -5.890625 C 0.359375 -6.023438 0.363281 -6.128906 0.375 -6.203125 C 0.382812 -6.273438 0.414062 -6.351562 0.46875 -6.4375 C 0.550781 -6.601562 0.785156 -6.6875 1.171875 -6.6875 C 1.597656 -6.6875 1.851562 -6.570312 1.9375 -6.34375 C 1.96875 -6.25 1.984375 -6.09375 1.984375 -5.875 L 1.984375 -4.015625 L 4.390625 -4.015625 L 4.390625 -5.890625 C 4.390625 -6.023438 4.394531 -6.128906 4.40625 -6.203125 C 4.414062 -6.273438 4.445312 -6.351562 4.5 -6.4375 Z M 4.5 -6.4375 "/></g></g></g><g fill="#000000" fill-opacity="1"><g transform="translate(28.697654, 16.714148)"><g><path d="M 0.359375 -5.890625 C 0.359375 -6.023438 0.363281 -6.128906 0.375 -6.203125 C 0.382812 -6.273438 0.414062 -6.351562 0.46875 -6.4375 C 0.550781 -6.601562 0.785156 -6.6875 1.171875 -6.6875 C 1.597656 -6.6875 1.851562 -6.570312 1.9375 -6.34375 C 1.96875 -6.25 1.984375 -6.09375 1.984375 -5.875 L 1.984375 -0.796875 C 1.984375 -0.648438 1.976562 -0.546875 1.96875 -0.484375 C 1.957031 -0.421875 1.925781 -0.34375 1.875 -0.25 C 1.789062 -0.0820312 1.554688 0 1.171875 0 C 0.742188 0 0.492188 -0.113281 0.421875 -0.34375 C 0.378906 -0.445312 0.359375 -0.601562 0.359375 -0.8125 Z M 0.359375 -5.890625 "/></g></g></g><g fill="#000000" fill-opacity="1"><g transform="translate(31.043014, 16.714148)"><g><path d="M 0.46875 -0.9375 C 0.3125 -1.132812 0.234375 -1.3125 0.234375 -1.46875 C 0.234375 -1.625 0.363281 -1.828125 0.625 -2.078125 C 0.769531 -2.222656 0.925781 -2.296875 1.09375 -2.296875 C 1.269531 -2.296875 1.507812 -2.144531 1.8125 -1.84375 C 1.894531 -1.738281 2.015625 -1.640625 2.171875 -1.546875 C 2.335938 -1.453125 2.488281 -1.40625 2.625 -1.40625 C 3.1875 -1.40625 3.46875 -1.632812 3.46875 -2.09375 C 3.46875 -2.238281 3.390625 -2.359375 3.234375 -2.453125 C 3.078125 -2.546875 2.882812 -2.613281 2.65625 -2.65625 C 2.425781 -2.695312 2.175781 -2.765625 1.90625 -2.859375 C 1.632812 -2.953125 1.382812 -3.0625 1.15625 -3.1875 C 0.925781 -3.320312 0.734375 -3.523438 0.578125 -3.796875 C 0.421875 -4.078125 0.34375 -4.410156 0.34375 -4.796875 C 0.34375 -5.335938 0.539062 -5.804688 0.9375 -6.203125 C 1.34375 -6.597656 1.890625 -6.796875 2.578125 -6.796875 C 2.941406 -6.796875 3.273438 -6.75 3.578125 -6.65625 C 3.878906 -6.5625 4.085938 -6.46875 4.203125 -6.375 L 4.421875 -6.203125 C 4.609375 -6.023438 4.703125 -5.875 4.703125 -5.75 C 4.703125 -5.625 4.628906 -5.457031 4.484375 -5.25 C 4.273438 -4.945312 4.0625 -4.796875 3.84375 -4.796875 C 3.71875 -4.796875 3.5625 -4.851562 3.375 -4.96875 C 3.351562 -4.976562 3.316406 -5.007812 3.265625 -5.0625 C 3.210938 -5.113281 3.164062 -5.15625 3.125 -5.1875 C 3 -5.257812 2.835938 -5.296875 2.640625 -5.296875 C 2.441406 -5.296875 2.273438 -5.25 2.140625 -5.15625 C 2.015625 -5.0625 1.953125 -4.929688 1.953125 -4.765625 C 1.953125 -4.597656 2.03125 -4.460938 2.1875 -4.359375 C 2.34375 -4.253906 2.535156 -4.179688 2.765625 -4.140625 C 2.992188 -4.109375 3.242188 -4.054688 3.515625 -3.984375 C 3.796875 -3.910156 4.050781 -3.816406 4.28125 -3.703125 C 4.507812 -3.597656 4.703125 -3.410156 4.859375 -3.140625 C 5.015625 -2.867188 5.09375 -2.535156 5.09375 -2.140625 C 5.09375 -1.742188 5.015625 -1.394531 4.859375 -1.09375 C 4.703125 -0.789062 4.492188 -0.554688 4.234375 -0.390625 C 3.742188 -0.0664062 3.21875 0.09375 2.65625 0.09375 C 2.363281 0.09375 2.085938 0.0546875 1.828125 -0.015625 C 1.578125 -0.0859375 1.375 -0.175781 1.21875 -0.28125 C 0.894531 -0.46875 0.671875 -0.65625 0.546875 -0.84375 Z M 0.46875 -0.9375 "/></g></g></g><g fill="#000000" fill-opacity="1"><g transform="translate(36.363431, 16.714148)"><g><path d="M 4.5 -6.4375 C 4.550781 -6.53125 4.632812 -6.59375 4.75 -6.625 C 4.863281 -6.664062 5.007812 -6.6875 5.1875 -6.6875 C 5.363281 -6.6875 5.503906 -6.671875 5.609375 -6.640625 C 5.710938 -6.609375 5.789062 -6.570312 5.84375 -6.53125 C 5.894531 -6.488281 5.9375 -6.425781 5.96875 -6.34375 C 6 -6.25 6.015625 -6.09375 6.015625 -5.875 L 6.015625 -0.8125 C 6.015625 -0.675781 6.007812 -0.570312 6 -0.5 C 5.988281 -0.425781 5.957031 -0.34375 5.90625 -0.25 C 5.820312 -0.09375 5.585938 -0.015625 5.203125 -0.015625 C 4.773438 -0.015625 4.523438 -0.125 4.453125 -0.34375 C 4.410156 -0.445312 4.390625 -0.609375 4.390625 -0.828125 L 4.390625 -2.671875 L 1.984375 -2.671875 L 1.984375 -0.8125 C 1.984375 -0.675781 1.976562 -0.570312 1.96875 -0.5 C 1.957031 -0.425781 1.925781 -0.34375 1.875 -0.25 C 1.789062 -0.09375 1.554688 -0.015625 1.171875 -0.015625 C 0.742188 -0.015625 0.492188 -0.125 0.421875 -0.34375 C 0.378906 -0.445312 0.359375 -0.609375 0.359375 -0.828125 L 0.359375 -5.890625 C 0.359375 -6.023438 0.363281 -6.128906 0.375 -6.203125 C 0.382812 -6.273438 0.414062 -6.351562 0.46875 -6.4375 C 0.550781 -6.601562 0.785156 -6.6875 1.171875 -6.6875 C 1.597656 -6.6875 1.851562 -6.570312 1.9375 -6.34375 C 1.96875 -6.25 1.984375 -6.09375 1.984375 -5.875 L 1.984375 -4.015625 L 4.390625 -4.015625 L 4.390625 -5.890625 C 4.390625 -6.023438 4.394531 -6.128906 4.40625 -6.203125 C 4.414062 -6.273438 4.445312 -6.351562 4.5 -6.4375 Z M 4.5 -6.4375 "/></g></g></g><g fill="#000000" fill-opacity="1"><g transform="translate(42.742459, 16.714148)"><g><path d="M 0.359375 -5.890625 C 0.359375 -6.023438 0.363281 -6.128906 0.375 -6.203125 C 0.382812 -6.273438 0.414062 -6.351562 0.46875 -6.4375 C 0.550781 -6.601562 0.785156 -6.6875 1.171875 -6.6875 C 1.597656 -6.6875 1.851562 -6.570312 1.9375 -6.34375 C 1.96875 -6.25 1.984375 -6.09375 1.984375 -5.875 L 1.984375 -0.796875 C 1.984375 -0.648438 1.976562 -0.546875 1.96875 -0.484375 C 1.957031 -0.421875 1.925781 -0.34375 1.875 -0.25 C 1.789062 -0.0820312 1.554688 0 1.171875 0 C 0.742188 0 0.492188 -0.113281 0.421875 -0.34375 C 0.378906 -0.445312 0.359375 -0.601562 0.359375 -0.8125 Z M 0.359375 -5.890625 "/></g></g></g><g fill="#000000" fill-opacity="1"><g transform="translate(45.087818, 16.714148)"><g><path d="M 5.484375 -1.125 C 5.578125 -0.90625 5.625 -0.75 5.625 -0.65625 C 5.625 -0.425781 5.4375 -0.234375 5.0625 -0.078125 C 4.863281 0.015625 4.703125 0.0625 4.578125 0.0625 C 4.460938 0.0625 4.363281 0.03125 4.28125 -0.03125 C 4.207031 -0.09375 4.15625 -0.148438 4.125 -0.203125 C 4.0625 -0.328125 3.820312 -0.878906 3.40625 -1.859375 L 3.125 -1.84375 L 1.984375 -1.84375 L 1.984375 -0.8125 C 1.984375 -0.675781 1.976562 -0.570312 1.96875 -0.5 C 1.957031 -0.425781 1.925781 -0.34375 1.875 -0.25 C 1.789062 -0.09375 1.554688 -0.015625 1.171875 -0.015625 C 0.742188 -0.015625 0.492188 -0.125 0.421875 -0.34375 C 0.378906 -0.445312 0.359375 -0.609375 0.359375 -0.828125 L 0.359375 -5.890625 C 0.359375 -6.023438 0.363281 -6.128906 0.375 -6.203125 C 0.382812 -6.273438 0.414062 -6.351562 0.46875 -6.4375 C 0.550781 -6.601562 0.785156 -6.6875 1.171875 -6.6875 L 3.140625 -6.6875 C 3.679688 -6.6875 4.203125 -6.492188 4.703125 -6.109375 C 4.953125 -5.921875 5.15625 -5.664062 5.3125 -5.34375 C 5.46875 -5.019531 5.546875 -4.660156 5.546875 -4.265625 C 5.546875 -3.578125 5.316406 -3.007812 4.859375 -2.5625 C 4.992188 -2.238281 5.203125 -1.757812 5.484375 -1.125 Z M 1.984375 -3.453125 L 3.140625 -3.453125 C 3.316406 -3.453125 3.492188 -3.519531 3.671875 -3.65625 C 3.847656 -3.789062 3.9375 -3.988281 3.9375 -4.25 C 3.9375 -4.519531 3.847656 -4.722656 3.671875 -4.859375 C 3.492188 -5.003906 3.3125 -5.078125 3.125 -5.078125 L 1.984375 -5.078125 Z M 1.984375 -3.453125 "/></g></g></g></svg>